<?xml version="1.0" encoding="utf-8"?>
<!-- Generator: Adobe Illustrator 16.0.3, SVG Export Plug-In . SVG Version: 6.00 Build 0)  -->
<!DOCTYPE svg PUBLIC "-//W3C//DTD SVG 1.1//EN" "http://www.w3.org/Graphics/SVG/1.1/DTD/svg11.dtd">
<svg version="1.1" id="svg3523" xmlns:svg="http://www.w3.org/2000/svg"
	 xmlns="http://www.w3.org/2000/svg" xmlns:xlink="http://www.w3.org/1999/xlink" x="0px" y="0px" width="708.661px"
	 height="71.434px" viewBox="0 0 708.661 71.434" enable-background="new 0 0 708.661 71.434" xml:space="preserve">
<g id="layer1" transform="translate(-173.34263,-426.81307)">
	<g id="g3541" transform="matrix(3.7775042,0,0,3.7775042,-481.45992,-1383.8797)">
		<path id="path762" fill="#004A8B" d="M173.343,495.209c0,1.675,1.362,3.037,3.037,3.037c0.512,0,0.987-0.125,1.412-0.338
			l12.798-6.387c1-0.5,1.7-1.537,1.7-2.737c0-1.187-0.7-2.212-1.7-2.712l-12.798-6.387c-0.425-0.225-0.9-0.35-1.412-0.35
			c-1.675,0-3.037,1.375-3.037,3.05V495.209"/>
		<path id="path764" fill="#004A8B" d="M197.352,496.358h13.373c2.4,0,4.174-0.687,4.174-3.974c0-2.25-0.675-3.325-2.512-3.575
			v-0.062c1.175-0.375,2.025-0.862,2.025-3.425c0-2.937-1.625-3.937-4.974-3.937h-12.086V496.358z M201.551,490.422h7.524
			c0.912,0,1.512,0.225,1.512,1.237c0,0.875-0.6,1.1-1.512,1.1h-7.524V490.422z M201.551,484.985h7.436
			c0.775,0,1.225,0.312,1.225,1.187c0,0.837-0.45,1.15-1.225,1.15h-7.436V484.985"/>
		<path id="path766" fill="#004A8B" d="M221.636,485.11h6.562c1.325,0,1.925,0.25,1.925,1.575v0.487c0,1.087-0.412,1.575-1.55,1.575
			h-6.937V485.11z M217.437,496.358h4.199v-3.887h6.599c1.3,0,1.725,0.512,1.725,2.087v1.8h4.2v-2.55
			c0-2.462-1.037-3.05-2.287-3.299v-0.05c1.925-0.488,2.337-1.675,2.337-3.674v-0.95c0-2.687-0.862-4.449-4.099-4.449h-12.673
			v14.972"/>
		<path id="path768" fill="#004A8B" d="M235.709,496.358h4.687l1.237-2.65h8.511l1.3,2.65h4.674l-7.524-14.973h-5.474
			L235.709,496.358z M245.846,484.86l2.725,5.624h-5.374L245.846,484.86"/>
		<path id="path770" fill="#004A8B" d="M257.844,481.385h4.199v14.973h-4.199V481.385z"/>
		<path id="path772" fill="#004A8B" d="M265.106,496.358h4.199v-10.874h0.038l7.886,10.874h6.512v-14.973h-4.2v10.874h-0.037
			l-7.886-10.874h-6.512V496.358"/>
		<path id="path774" fill="#004A8B" d="M286.578,496.358h4.199v-3.762h8.336c2.975,0,3.862-2.562,3.862-4.799v-1.275
			c0-2.937-0.963-5.137-4.95-5.137h-11.448v14.973H286.578z M290.777,485.11h6.162c1.275,0,1.725,0.575,1.725,1.587v0.587
			c0,0.888-0.375,1.587-1.362,1.587h-6.524v-3.761"/>
		<path id="path776" fill="#004A8B" d="M304.938,491.109c0,4.374,2.25,5.412,6.036,5.412h6.737c3.787,0,6.037-1.037,6.037-5.412
			v-4.462c0-4.387-2.25-5.424-6.037-5.424h-6.737c-3.787,0-6.036,1.037-6.036,5.424V491.109z M309.25,488.072
			c0-1.862,0.425-3,2.637-3h4.912c2.212,0,2.637,1.137,2.637,3v1.6c0,2.175-0.425,3-2.412,3h-5.362c-1.987,0-2.412-0.825-2.412-3
			V488.072"/>
		<path id="path778" fill="#004A8B" d="M325.973,491.109c0,4.374,2.25,5.412,6.036,5.412h6.737c3.787,0,6.037-1.037,6.037-5.412
			v-4.462c0-4.387-2.25-5.424-6.037-5.424h-6.737c-3.787,0-6.036,1.037-6.036,5.424V491.109z M330.284,488.072
			c0-1.862,0.425-3,2.637-3h4.912c2.212,0,2.624,1.137,2.624,3v1.6c0,2.175-0.413,3-2.4,3h-5.374c-1.975,0-2.4-0.825-2.4-3v-1.6"/>
		<path id="path780" fill="#004A8B" d="M347.307,496.358h13.635v-3.849h-9.436v-11.124h-4.199V496.358"/>
	</g>
</g>
</svg>
